<svg id="visual" viewBox="0 0 960 540" width="960" height="540" xmlns="http://www.w3.org/2000/svg" xmlns:xlink="http://www.w3.org/1999/xlink" version="1.1"><rect x="0" y="0" width="960" height="540" fill="#DFC412"></rect><path d="M0 423L22.8 434.5C45.7 446 91.3 469 137 455.7C182.7 442.3 228.3 392.7 274 361.3C319.7 330 365.3 317 411.2 342.5C457 368 503 432 548.8 454.7C594.7 477.3 640.3 458.7 686 399.5C731.7 340.3 777.3 240.7 823 204.2C868.7 167.7 914.3 194.3 937.2 207.7L960 221L960 541L937.2 541C914.3 541 868.7 541 823 541C777.3 541 731.7 541 686 541C640.3 541 594.7 541 548.8 541C503 541 457 541 411.2 541C365.3 541 319.7 541 274 541C228.3 541 182.7 541 137 541C91.3 541 45.7 541 22.8 541L0 541Z" fill="#414033" stroke-linecap="round" stroke-linejoin="miter"></path></svg>