<svg id="visual" viewBox="0 0 900 600" width="900" height="600" xmlns="http://www.w3.org/2000/svg" xmlns:xlink="http://www.w3.org/1999/xlink" version="1.1"><rect x="0" y="0" width="900" height="600" fill="#fff"></rect><path d="M0 505L37.5 496.8C75 488.7 150 472.3 225 458.3C300 444.3 375 432.7 450 426.2C525 419.7 600 418.3 675 419.2C750 420 825 423 862.5 424.5L900 426L900 601L862.5 601C825 601 750 601 675 601C600 601 525 601 450 601C375 601 300 601 225 601C150 601 75 601 37.5 601L0 601Z" fill="#DFC412" stroke-linecap="round" stroke-linejoin="miter"></path></svg>