<svg id="visual" viewBox="0 0 900 600" width="900" height="600" xmlns="http://www.w3.org/2000/svg" xmlns:xlink="http://www.w3.org/1999/xlink" version="1.1"><rect x="0" y="0" width="900" height="600" fill="#fff"></rect><path d="M0 488L21.5 491.8C43 495.7 86 503.3 128.8 494.2C171.7 485 214.3 459 257.2 459.8C300 460.7 343 488.3 385.8 488.7C428.7 489 471.3 462 514.2 458.5C557 455 600 475 642.8 469.8C685.7 464.7 728.3 434.3 771.2 438.7C814 443 857 482 878.5 501.5L900 521L900 601L878.5 601C857 601 814 601 771.2 601C728.3 601 685.7 601 642.8 601C600 601 557 601 514.2 601C471.3 601 428.7 601 385.8 601C343 601 300 601 257.2 601C214.3 601 171.7 601 128.8 601C86 601 43 601 21.5 601L0 601Z" fill="#DFC412" stroke-linecap="round" stroke-linejoin="miter"></path></svg>