<svg id="visual" viewBox="0 0 960 540" width="960" height="540" xmlns="http://www.w3.org/2000/svg" xmlns:xlink="http://www.w3.org/1999/xlink" version="1.1"><rect x="0" y="0" width="960" height="540" fill="#DFC412"></rect><path d="M0 164L22.8 178C45.7 192 91.3 220 137 253.8C182.7 287.7 228.3 327.3 274 358.5C319.7 389.7 365.3 412.3 411.2 387.3C457 362.3 503 289.7 548.8 294C594.7 298.3 640.3 379.7 686 429.5C731.7 479.3 777.3 497.7 823 467.2C868.7 436.7 914.3 357.3 937.2 317.7L960 278L960 541L937.2 541C914.3 541 868.7 541 823 541C777.3 541 731.7 541 686 541C640.3 541 594.7 541 548.8 541C503 541 457 541 411.2 541C365.3 541 319.7 541 274 541C228.3 541 182.7 541 137 541C91.3 541 45.7 541 22.8 541L0 541Z" fill="#414033" stroke-linecap="round" stroke-linejoin="miter"></path></svg>