<svg id="visual" viewBox="0 0 960 540" width="960" height="540" xmlns="http://www.w3.org/2000/svg" xmlns:xlink="http://www.w3.org/1999/xlink" version="1.1"><rect x="0" y="0" width="960" height="540" fill="#DFC412"></rect><path d="M0 392L22.8 385.8C45.7 379.7 91.3 367.3 137 351.5C182.7 335.7 228.3 316.3 274 295.8C319.7 275.3 365.3 253.7 411.2 271.5C457 289.3 503 346.7 548.8 366.2C594.7 385.7 640.3 367.3 686 347.2C731.7 327 777.3 305 823 282C868.7 259 914.3 235 937.2 223L960 211L960 541L937.2 541C914.3 541 868.7 541 823 541C777.3 541 731.7 541 686 541C640.3 541 594.7 541 548.8 541C503 541 457 541 411.2 541C365.3 541 319.7 541 274 541C228.3 541 182.7 541 137 541C91.3 541 45.7 541 22.8 541L0 541Z" fill="#414033" stroke-linecap="round" stroke-linejoin="miter"></path></svg>