<svg id="visual" viewBox="0 0 900 600" width="900" height="600" xmlns="http://www.w3.org/2000/svg" xmlns:xlink="http://www.w3.org/1999/xlink" version="1.1"><rect x="0" y="0" width="900" height="600" fill="#DFC412"></rect><path d="M0 449L15 426.7C30 404.3 60 359.7 90 356.2C120 352.7 150 390.3 180 412.7C210 435 240 442 270 424.2C300 406.3 330 363.7 360 352.5C390 341.3 420 361.7 450 384.2C480 406.7 510 431.3 540 416.5C570 401.7 600 347.3 630 348.8C660 350.3 690 407.7 720 418C750 428.3 780 391.7 810 379.2C840 366.7 870 378.3 885 384.2L900 390L900 601L885 601C870 601 840 601 810 601C780 601 750 601 720 601C690 601 660 601 630 601C600 601 570 601 540 601C510 601 480 601 450 601C420 601 390 601 360 601C330 601 300 601 270 601C240 601 210 601 180 601C150 601 120 601 90 601C60 601 30 601 15 601L0 601Z" fill="#414033" stroke-linecap="round" stroke-linejoin="miter"></path></svg>